<svg width="252" height="158" viewBox="0 0 252 158" fill="none" xmlns="http://www.w3.org/2000/svg">
<g filter="url(#filter0_d_405_2055)">
<path d="M164 0.5C185.815 0.5 203.5 18.1848 203.5 40C203.5 61.8152 185.815 79.5 164 79.5C142.185 79.5 124.5 61.8152 124.5 40V0.5H164Z" stroke="#B7812A" shape-rendering="crispEdges"/>
<path d="M176.682 45.0361V50.1143H151.071L150.803 46.208L165.866 22.4531H171.018L165.451 31.9014L157.37 45.0361H176.682ZM172.458 22.4531V58H165.988V22.4531H172.458Z" fill="#B7812A"/>
</g>
<path d="M1.5 78.5H128.053C132.316 78.5 136.511 79.5647 140.259 81.5967C141.873 82.4722 143.39 83.5189 144.78 84.7188L147.309 86.9004C149.159 88.4972 151.214 89.8421 153.418 90.8994L154.373 91.3564C163.559 95.7629 174.47 94.4059 182.297 87.8838H182.298L188.269 82.8994C192.488 80.0328 197.472 78.5 202.573 78.5H223.908C239.147 78.5 251.5 90.8533 251.5 106.092V119C251.5 140.263 234.263 157.5 213 157.5H39C17.737 157.5 0.500002 140.263 0.5 119V79.5C0.500037 78.9477 0.947738 78.5 1.5 78.5Z" stroke="#B7812A"/>
<path d="M19.8399 110.408C19.4559 110.408 19.1359 110.296 18.8799 110.072C18.6239 109.832 18.4959 109.472 18.4959 108.992C18.4959 108.496 18.6239 108.136 18.8799 107.912C19.1359 107.688 19.4559 107.576 19.8399 107.576C20.2239 107.576 20.5359 107.696 20.7759 107.936C21.0319 108.176 21.1599 108.528 21.1599 108.992C21.1599 109.44 21.0319 109.792 20.7759 110.048C20.5359 110.288 20.2239 110.408 19.8399 110.408ZM17.7759 114.056C17.3279 114.056 16.9679 113.92 16.6959 113.648C16.4079 113.36 16.2639 112.952 16.2639 112.424C16.2639 111.896 16.4079 111.496 16.6959 111.224C16.9679 110.936 17.3279 110.792 17.7759 110.792C18.2559 110.792 18.6319 110.944 18.9039 111.248C19.1599 111.536 19.2879 111.928 19.2879 112.424C19.2879 112.92 19.1519 113.32 18.8799 113.624C18.6079 113.912 18.2399 114.056 17.7759 114.056ZM21.8799 114.056C21.4159 114.056 21.0479 113.912 20.7759 113.624C20.5039 113.336 20.3679 112.936 20.3679 112.424C20.3679 111.912 20.4959 111.512 20.7519 111.224C21.0239 110.936 21.3999 110.792 21.8799 110.792C22.3439 110.792 22.7119 110.944 22.9839 111.248C23.2559 111.536 23.3919 111.928 23.3919 112.424C23.3919 112.92 23.2559 113.32 22.9839 113.624C22.7119 113.912 22.3439 114.056 21.8799 114.056ZM16.7478 126C15.3078 126 14.1638 125.576 13.3158 124.728C12.4838 123.88 12.0678 122.712 12.0678 121.224C12.0678 120.84 12.0918 120.432 12.1398 120C12.2038 119.552 12.2918 119.12 12.4038 118.704C12.5158 118.272 12.6438 117.896 12.7878 117.576H15.5238C15.4118 118.12 15.3238 118.664 15.2598 119.208C15.1958 119.752 15.1638 120.288 15.1638 120.816C15.1638 121.6 15.3718 122.24 15.7878 122.736C16.2038 123.216 16.7478 123.456 17.4198 123.456H25.5078V114.192H28.5558V126H16.7478ZM39.1618 123.456C39.2258 123.456 39.2578 123.488 39.2578 123.552V125.88C39.2578 125.96 39.2178 126 39.1378 126H32.9938V107.76H36.0898V123.456H39.1618ZM43.9571 107.408C43.5731 107.408 43.2531 107.296 42.9971 107.072C42.7411 106.832 42.6131 106.472 42.6131 105.992C42.6131 105.496 42.7411 105.136 42.9971 104.912C43.2531 104.688 43.5731 104.576 43.9571 104.576C44.3411 104.576 44.6531 104.696 44.8931 104.936C45.1491 105.176 45.2771 105.528 45.2771 105.992C45.2771 106.44 45.1491 106.792 44.8931 107.048C44.6531 107.288 44.3411 107.408 43.9571 107.408ZM41.8931 111.056C41.4451 111.056 41.0851 110.92 40.8131 110.648C40.5251 110.36 40.3811 109.952 40.3811 109.424C40.3811 108.896 40.5251 108.496 40.8131 108.224C41.0851 107.936 41.4451 107.792 41.8931 107.792C42.3731 107.792 42.7491 107.944 43.0211 108.248C43.2771 108.536 43.4051 108.928 43.4051 109.424C43.4051 109.92 43.2691 110.32 42.9971 110.624C42.7251 110.912 42.3571 111.056 41.8931 111.056ZM45.9971 111.056C45.5331 111.056 45.1651 110.912 44.8931 110.624C44.6211 110.336 44.4851 109.936 44.4851 109.424C44.4851 108.912 44.6131 108.512 44.8691 108.224C45.1411 107.936 45.5171 107.792 45.9971 107.792C46.4611 107.792 46.8291 107.944 47.1011 108.248C47.3731 108.536 47.5091 108.928 47.5091 109.424C47.5091 109.92 47.3731 110.32 47.1011 110.624C46.8291 110.912 46.4611 111.056 45.9971 111.056ZM38.8878 126C38.8078 126 38.7678 125.96 38.7678 125.88V123.552C38.7678 123.488 38.8078 123.456 38.8878 123.456H43.2318V114.192H46.3278V126H38.8878ZM49.4052 107.608L50.7012 107.392C50.3972 107.232 50.1572 107.016 49.9812 106.744C49.7892 106.472 49.6932 106.16 49.6932 105.808C49.6932 105.12 49.9332 104.584 50.4132 104.2C50.8772 103.816 51.4932 103.624 52.2613 103.624C52.9973 103.624 53.6133 103.76 54.1093 104.032L53.6773 105.208C53.4853 105.112 53.2773 105.04 53.0533 104.992C52.8453 104.944 52.6293 104.92 52.4053 104.92C52.0533 104.92 51.7732 105.024 51.5652 105.232C51.3412 105.424 51.2292 105.712 51.2292 106.096C51.2292 106.352 51.3012 106.576 51.4452 106.768C51.5732 106.944 51.7413 107.08 51.9493 107.176C52.3333 107.112 52.6773 107.064 52.9813 107.032C53.2853 106.984 53.5493 106.944 53.7733 106.912C53.9973 106.88 54.1813 106.864 54.3253 106.864V108.184C54.0373 108.2 53.6613 108.24 53.1973 108.304C52.7333 108.352 52.2453 108.408 51.7332 108.472C51.2212 108.52 50.7572 108.576 50.3412 108.64C49.9252 108.688 49.6132 108.736 49.4052 108.784V107.608ZM54.3091 123.84L51.1171 111H54.3571L57.4051 123.84H54.3091ZM57.6485 123.456C58.4645 123.456 59.0645 123.232 59.4485 122.784C59.8325 122.336 60.0245 121.632 60.0245 120.672V107.76H63.1205V120.96C63.1205 122.496 62.6805 123.72 61.8005 124.632C60.9365 125.544 59.7525 126 58.2485 126H49.5365V123.456H57.6485ZM67.6813 107.76H70.7773V126H67.6813V107.76ZM82.4159 123.456H90.4319C90.2879 122.72 90.1199 122.04 89.9279 121.416C89.7359 120.792 89.5119 120.232 89.2559 119.736C88.7919 118.76 88.1919 117.904 87.4559 117.168C86.7199 116.432 85.8239 115.8 84.7679 115.272L85.9199 112.416C87.2799 113.008 88.4559 113.808 89.4479 114.816C90.4559 115.808 91.2959 117.024 91.9679 118.464C92.6399 119.888 93.1519 121.552 93.5039 123.456H96.4799C96.5599 123.456 96.5999 123.488 96.5999 123.552V125.88C96.5999 125.96 96.5599 126 96.4799 126H82.4159V123.456ZM98.6576 131.592C98.2096 131.592 97.8496 131.448 97.5776 131.16C97.2896 130.888 97.1456 130.488 97.1456 129.96C97.1456 129.448 97.2896 129.048 97.5776 128.76C97.8496 128.472 98.2096 128.328 98.6576 128.328C99.1376 128.328 99.5136 128.472 99.7856 128.76C100.042 129.048 100.17 129.448 100.17 129.96C100.17 130.488 100.034 130.888 99.7616 131.16C99.4896 131.448 99.1216 131.592 98.6576 131.592ZM102.762 131.592C102.298 131.592 101.93 131.448 101.658 131.16C101.386 130.872 101.25 130.472 101.25 129.96C101.25 129.464 101.386 129.064 101.658 128.76C101.93 128.472 102.298 128.328 102.762 128.328C103.242 128.328 103.61 128.472 103.866 128.76C104.138 129.064 104.274 129.464 104.274 129.96C104.274 130.456 104.138 130.848 103.866 131.136C103.594 131.44 103.226 131.592 102.762 131.592ZM96.2394 126C96.1594 126 96.1194 125.96 96.1194 125.88V123.552C96.1194 123.488 96.1594 123.456 96.2394 123.456H100.583V114.192H103.679V126H96.2394ZM108.613 131.76C107.941 131.76 107.301 131.672 106.693 131.496C106.101 131.336 105.485 131.048 104.845 130.632L106.021 128.544C106.421 128.784 106.773 128.944 107.077 129.024C107.381 129.104 107.733 129.144 108.133 129.144C108.789 129.144 109.317 128.88 109.717 128.352C110.117 127.84 110.317 127.184 110.317 126.384V114.192H113.365V126.456C113.365 127.528 113.173 128.464 112.789 129.264C112.405 130.064 111.861 130.68 111.157 131.112C110.453 131.544 109.605 131.76 108.613 131.76ZM130.558 123.456C130.638 123.456 130.678 123.488 130.678 123.552V125.88C130.678 125.96 130.638 126 130.558 126H126.214C126.134 126 126.094 125.96 126.094 125.88V123.552C126.094 123.488 126.134 123.456 126.214 123.456H130.558ZM121.822 131.76C120.83 131.76 119.95 131.664 119.182 131.472C118.414 131.296 117.678 131 116.974 130.584L118.222 128.304C118.83 128.624 119.414 128.856 119.974 129C120.55 129.16 121.158 129.24 121.798 129.24C122.758 129.24 123.502 128.976 124.03 128.448C124.574 127.92 124.846 127.208 124.846 126.312V126H122.47C120.758 126 119.438 125.52 118.51 124.56C117.598 123.6 117.142 122.232 117.142 120.456C117.142 119.128 117.446 118 118.054 117.072C118.678 116.128 119.542 115.416 120.646 114.936C121.75 114.44 123.006 114.192 124.414 114.192H127.894V126.24C127.894 128 127.366 129.36 126.31 130.32C125.254 131.28 123.758 131.76 121.822 131.76ZM124.822 123.456V116.736H123.982C122.814 116.736 121.902 117.056 121.246 117.696C120.606 118.336 120.286 119.232 120.286 120.384C120.286 121.44 120.51 122.216 120.958 122.712C121.406 123.208 122.078 123.456 122.974 123.456H124.822ZM133.299 111.056C132.851 111.056 132.491 110.92 132.219 110.648C131.931 110.36 131.787 109.952 131.787 109.424C131.787 108.896 131.931 108.496 132.219 108.224C132.491 107.936 132.851 107.792 133.299 107.792C133.763 107.792 134.131 107.936 134.403 108.224C134.675 108.512 134.811 108.912 134.811 109.424C134.811 109.952 134.675 110.36 134.403 110.648C134.131 110.92 133.763 111.056 133.299 111.056ZM137.403 111.056C136.939 111.056 136.571 110.912 136.299 110.624C136.027 110.336 135.891 109.936 135.891 109.424C135.891 108.912 136.027 108.512 136.299 108.224C136.571 107.936 136.939 107.792 137.403 107.792C137.883 107.792 138.251 107.944 138.507 108.248C138.779 108.536 138.915 108.928 138.915 109.424C138.915 109.92 138.779 110.32 138.507 110.624C138.235 110.912 137.867 111.056 137.403 111.056ZM130.317 126C130.237 126 130.197 125.96 130.197 125.88V123.552C130.197 123.488 130.237 123.456 130.317 123.456H134.662V114.192H137.758V126H130.317ZM146.291 131.76C145.299 131.76 144.419 131.664 143.651 131.472C142.883 131.296 142.147 131 141.443 130.584L142.691 128.304C143.299 128.624 143.883 128.856 144.443 129C145.019 129.16 145.627 129.24 146.267 129.24C147.227 129.24 147.971 128.976 148.499 128.448C149.043 127.92 149.315 127.208 149.315 126.312V126H146.939C145.227 126 143.907 125.52 142.979 124.56C142.067 123.6 141.611 122.232 141.611 120.456C141.611 119.128 141.915 118 142.523 117.072C143.147 116.128 144.011 115.416 145.115 114.936C146.219 114.44 147.475 114.192 148.883 114.192H152.363V126.24C152.363 128 151.835 129.36 150.779 130.32C149.723 131.28 148.227 131.76 146.291 131.76ZM149.291 123.456V116.736H148.451C147.283 116.736 146.371 117.056 145.715 117.696C145.075 118.336 144.755 119.232 144.755 120.384C144.755 121.44 144.979 122.216 145.427 122.712C145.875 123.208 146.547 123.456 147.443 123.456H149.291ZM169.05 126C168.378 126 167.898 126.144 167.61 126.432C167.322 126.72 167.178 127.184 167.178 127.824V133.68H164.13V126.912C164.13 126.224 164.25 125.624 164.49 125.112C164.73 124.584 165.074 124.184 165.522 123.912C165.986 123.624 166.538 123.48 167.178 123.48H167.25C167.01 122.888 166.826 122.288 166.698 121.68C166.586 121.072 166.53 120.472 166.53 119.88C166.53 119.176 166.634 118.448 166.842 117.696C167.05 116.928 167.314 116.272 167.634 115.728C168.306 115.28 169.058 114.928 169.89 114.672C170.738 114.416 171.53 114.288 172.266 114.288C172.794 114.288 173.298 114.344 173.778 114.456C174.258 114.568 174.706 114.736 175.122 114.96C175.97 115.424 176.626 116.08 177.09 116.928C177.57 117.776 177.81 118.744 177.81 119.832C177.81 120.28 177.77 120.72 177.69 121.152C177.61 121.568 177.49 121.984 177.33 122.4C177.634 122.784 177.986 123.056 178.386 123.216C178.786 123.376 179.29 123.456 179.898 123.456H180.018C180.098 123.456 180.138 123.488 180.138 123.552V125.88C180.138 125.96 180.098 126 180.018 126H179.898C179.05 126 178.314 125.88 177.69 125.64C177.082 125.4 176.498 124.992 175.938 124.416C175.362 124.944 174.698 125.344 173.946 125.616C173.194 125.872 172.418 126 171.618 126H169.05ZM169.458 120.072C169.458 120.584 169.506 121.12 169.602 121.68C169.714 122.24 169.89 122.832 170.13 123.456H171.306C171.978 123.456 172.562 123.304 173.058 123C173.57 122.696 173.97 122.272 174.258 121.728C174.546 121.168 174.69 120.528 174.69 119.808C174.69 118.896 174.458 118.168 173.994 117.624C173.53 117.08 172.938 116.808 172.218 116.808C171.818 116.808 171.41 116.88 170.994 117.024C170.594 117.152 170.194 117.344 169.794 117.6C169.666 117.984 169.578 118.384 169.53 118.8C169.482 119.2 169.458 119.624 169.458 120.072ZM182.564 131.592C182.116 131.592 181.756 131.448 181.484 131.16C181.196 130.888 181.052 130.488 181.052 129.96C181.052 129.448 181.196 129.048 181.484 128.76C181.756 128.472 182.116 128.328 182.564 128.328C183.044 128.328 183.42 128.472 183.692 128.76C183.948 129.048 184.076 129.448 184.076 129.96C184.076 130.488 183.94 130.888 183.668 131.16C183.396 131.448 183.028 131.592 182.564 131.592ZM186.668 131.592C186.204 131.592 185.836 131.448 185.564 131.16C185.292 130.872 185.156 130.472 185.156 129.96C185.156 129.464 185.292 129.064 185.564 128.76C185.836 128.472 186.204 128.328 186.668 128.328C187.148 128.328 187.516 128.472 187.772 128.76C188.044 129.064 188.18 129.464 188.18 129.96C188.18 130.456 188.044 130.848 187.772 131.136C187.5 131.44 187.132 131.592 186.668 131.592ZM179.771 126C179.691 126 179.651 125.96 179.651 125.88V123.552C179.651 123.488 179.691 123.456 179.771 123.456H183.539V114.192H186.635V123.456H190.235C190.315 123.456 190.355 123.488 190.355 123.552V125.88C190.355 125.96 190.315 126 190.235 126H179.771ZM192.797 123.456C192.557 122.864 192.373 122.272 192.245 121.68C192.117 121.088 192.053 120.488 192.053 119.88C192.053 119.192 192.157 118.472 192.365 117.72C192.573 116.968 192.837 116.304 193.157 115.728C193.877 115.264 194.653 114.912 195.485 114.672C196.317 114.416 197.085 114.288 197.789 114.288C198.317 114.288 198.821 114.344 199.301 114.456C199.781 114.568 200.237 114.736 200.669 114.96C201.517 115.424 202.173 116.08 202.637 116.928C203.101 117.76 203.333 118.728 203.333 119.832C203.333 120.296 203.293 120.744 203.213 121.176C203.149 121.608 203.029 122.024 202.853 122.424C203.157 122.808 203.501 123.08 203.885 123.24C204.285 123.384 204.789 123.456 205.397 123.456H205.517C205.597 123.456 205.637 123.488 205.637 123.552V125.88C205.637 125.96 205.597 126 205.517 126H205.397C204.549 126 203.813 125.88 203.189 125.64C202.581 125.4 202.005 124.992 201.461 124.416C200.885 124.944 200.221 125.344 199.469 125.616C198.717 125.872 197.941 126 197.141 126H189.989C189.909 126 189.869 125.96 189.869 125.88V123.552C189.869 123.488 189.909 123.456 189.989 123.456H192.797ZM194.981 120.072C194.981 120.584 195.037 121.12 195.149 121.68C195.261 122.24 195.429 122.832 195.653 123.456H196.829C197.501 123.456 198.085 123.304 198.581 123C199.093 122.696 199.493 122.272 199.781 121.728C200.069 121.168 200.213 120.528 200.213 119.808C200.213 118.912 199.981 118.192 199.517 117.648C199.053 117.088 198.461 116.808 197.741 116.808C197.341 116.808 196.933 116.88 196.517 117.024C196.101 117.152 195.701 117.344 195.317 117.6C195.205 117.984 195.117 118.384 195.053 118.8C195.005 119.2 194.981 119.624 194.981 120.072ZM205.271 126C205.191 126 205.151 125.96 205.151 125.88V123.552C205.151 123.488 205.191 123.456 205.271 123.456H208.127V114.432H211.199V118.728C211.695 117.672 212.271 116.792 212.927 116.088C213.583 115.368 214.311 114.832 215.111 114.48C215.927 114.128 216.807 113.952 217.751 113.952C219.671 113.952 221.119 114.464 222.095 115.488C223.071 116.512 223.559 118.096 223.559 120.24V123.456H226.679C226.759 123.456 226.799 123.488 226.799 123.552V125.88C226.799 125.96 226.759 126 226.679 126H205.271ZM220.487 123.456V120.216C220.487 118.952 220.199 118.024 219.623 117.432C219.047 116.824 218.175 116.52 217.007 116.52C216.239 116.52 215.511 116.704 214.823 117.072C214.151 117.44 213.511 118 212.903 118.752C212.311 119.488 211.743 120.424 211.199 121.56V123.456H220.487ZM229.416 111.056C228.968 111.056 228.608 110.92 228.336 110.648C228.048 110.36 227.904 109.952 227.904 109.424C227.904 108.896 228.048 108.496 228.336 108.224C228.608 107.936 228.968 107.792 229.416 107.792C229.88 107.792 230.248 107.936 230.52 108.224C230.792 108.512 230.928 108.912 230.928 109.424C230.928 109.952 230.792 110.36 230.52 110.648C230.248 110.92 229.88 111.056 229.416 111.056ZM233.52 111.056C233.056 111.056 232.688 110.912 232.416 110.624C232.144 110.336 232.008 109.936 232.008 109.424C232.008 108.912 232.144 108.512 232.416 108.224C232.688 107.936 233.056 107.792 233.52 107.792C234 107.792 234.368 107.944 234.624 108.248C234.896 108.536 235.032 108.928 235.032 109.424C235.032 109.92 234.896 110.32 234.624 110.624C234.352 110.912 233.984 111.056 233.52 111.056ZM226.435 126C226.355 126 226.315 125.96 226.315 125.88V123.552C226.315 123.488 226.355 123.456 226.435 123.456H230.779V114.192H233.875V126H226.435Z" fill="#222222"/>
<defs>
<filter id="filter0_d_405_2055" x="120" y="0" width="88" height="88" filterUnits="userSpaceOnUse" color-interpolation-filters="sRGB">
<feFlood flood-opacity="0" result="BackgroundImageFix"/>
<feColorMatrix in="SourceAlpha" type="matrix" values="0 0 0 0 0 0 0 0 0 0 0 0 0 0 0 0 0 0 127 0" result="hardAlpha"/>
<feOffset dy="4"/>
<feGaussianBlur stdDeviation="2"/>
<feComposite in2="hardAlpha" operator="out"/>
<feColorMatrix type="matrix" values="0 0 0 0 0.717647 0 0 0 0 0.505882 0 0 0 0 0.164706 0 0 0 0.3 0"/>
<feBlend mode="normal" in2="BackgroundImageFix" result="effect1_dropShadow_405_2055"/>
<feBlend mode="normal" in="SourceGraphic" in2="effect1_dropShadow_405_2055" result="shape"/>
</filter>
</defs>
</svg>
